<svg aria-hidden="true" style="position: absolute; width: 0; height: 0; overflow: hidden;" version="1.1" xmlns="http://www.w3.org/2000/svg" xmlns:xlink="http://www.w3.org/1999/xlink">
<defs>
<symbol id="icon-home" viewBox="0 0 32 32">
<path d="M32 18.451l-16-12.42-16 12.42v-5.064l16-12.42 16 12.42zM28 18v12h-8v-8h-8v8h-8v-12l12-9z"></path>
</symbol>
<symbol id="icon-office" viewBox="0 0 32 32">
<path d="M0 32h16v-32h-16v32zM10 4h4v4h-4v-4zM10 12h4v4h-4v-4zM10 20h4v4h-4v-4zM2 4h4v4h-4v-4zM2 12h4v4h-4v-4zM2 20h4v4h-4v-4zM18 10h14v2h-14zM18 32h4v-8h6v8h4v-18h-14z"></path>
</symbol>
<symbol id="icon-headphones" viewBox="0 0 32 32">
<path d="M9 18h-2v14h2c0.55 0 1-0.45 1-1v-12c0-0.55-0.45-1-1-1z"></path>
<path d="M23 18c-0.55 0-1 0.45-1 1v12c0 0.55 0.45 1 1 1h2v-14h-2z"></path>
<path d="M32 16c0-8.837-7.163-16-16-16s-16 7.163-16 16c0 1.919 0.338 3.759 0.958 5.464-0.609 1.038-0.958 2.246-0.958 3.536 0 3.526 2.608 6.443 6 6.929v-13.857c-0.997 0.143-1.927 0.495-2.742 1.012-0.168-0.835-0.258-1.699-0.258-2.584 0-7.18 5.82-13 13-13s13 5.82 13 13c0 0.885-0.088 1.749-0.257 2.584-0.816-0.517-1.745-0.87-2.743-1.013v13.858c3.392-0.485 6-3.402 6-6.929 0-1.29-0.349-2.498-0.958-3.536 0.62-1.705 0.958-3.545 0.958-5.465z"></path>
</symbol>
<symbol id="icon-film" viewBox="0 0 32 32">
<path d="M0 4v24h32v-24h-32zM6 26h-4v-4h4v4zM6 18h-4v-4h4v4zM6 10h-4v-4h4v4zM24 26h-16v-20h16v20zM30 26h-4v-4h4v4zM30 18h-4v-4h4v4zM30 10h-4v-4h4v4zM12 10v12l8-6z"></path>
</symbol>
<symbol id="icon-video-camera" viewBox="0 0 32 32">
<path d="M12 9c0-2.761 2.239-5 5-5s5 2.239 5 5c0 2.761-2.239 5-5 5s-5-2.239-5-5zM0 9c0-2.761 2.239-5 5-5s5 2.239 5 5c0 2.761-2.239 5-5 5s-5-2.239-5-5zM24 19v-3c0-1.1-0.9-2-2-2h-20c-1.1 0-2 0.9-2 2v10c0 1.1 0.9 2 2 2h20c1.1 0 2-0.9 2-2v-3l8 5v-14l-8 5zM20 24h-16v-6h16v6z"></path>
</symbol>
<symbol id="icon-file-video" viewBox="0 0 32 32">
<path d="M28.681 7.159c-0.694-0.947-1.662-2.053-2.724-3.116s-2.169-2.030-3.116-2.724c-1.612-1.182-2.394-1.319-2.841-1.319h-15.5c-1.378 0-2.5 1.121-2.5 2.5v27c0 1.378 1.121 2.5 2.5 2.5h23c1.378 0 2.5-1.122 2.5-2.5v-19.5c0-0.448-0.137-1.23-1.319-2.841v0 0zM24.543 5.457c0.959 0.959 1.712 1.825 2.268 2.543h-4.811v-4.811c0.718 0.556 1.584 1.309 2.543 2.268v0 0zM28 29.5c0 0.271-0.229 0.5-0.5 0.5h-23c-0.271 0-0.5-0.229-0.5-0.5v-27c0-0.271 0.229-0.5 0.5-0.5 0 0 15.499-0 15.5 0v7c0 0.552 0.448 1 1 1h7v19.5z"></path>
<path d="M8 16h10v10h-10v-10z"></path>
<path d="M18 20l6-4v10l-6-4z"></path>
</symbol>
<symbol id="icon-price-tag" viewBox="0 0 32 32">
<path d="M30.5 0h-12c-0.825 0-1.977 0.477-2.561 1.061l-14.879 14.879c-0.583 0.583-0.583 1.538 0 2.121l12.879 12.879c0.583 0.583 1.538 0.583 2.121 0l14.879-14.879c0.583-0.583 1.061-1.736 1.061-2.561v-12c0-0.825-0.675-1.5-1.5-1.5zM23 12c-1.657 0-3-1.343-3-3s1.343-3 3-3 3 1.343 3 3-1.343 3-3 3z"></path>
</symbol>
<symbol id="icon-qrcode" viewBox="0 0 32 32">
<path d="M10 2h-8v8h8v-8zM12 0v0 12h-12v-12h12zM4 4h4v4h-4zM30 2h-8v8h8v-8zM32 0v0 12h-12v-12h12zM24 4h4v4h-4zM10 22h-8v8h8v-8zM12 20v0 12h-12v-12h12zM4 24h4v4h-4zM14 0h2v2h-2zM16 2h2v2h-2zM14 4h2v2h-2zM16 6h2v2h-2zM14 8h2v2h-2zM16 10h2v2h-2zM14 12h2v2h-2zM14 16h2v2h-2zM16 18h2v2h-2zM14 20h2v2h-2zM16 22h2v2h-2zM14 24h2v2h-2zM16 26h2v2h-2zM14 28h2v2h-2zM16 30h2v2h-2zM30 16h2v2h-2zM2 16h2v2h-2zM4 14h2v2h-2zM0 14h2v2h-2zM8 14h2v2h-2zM10 16h2v2h-2zM12 14h2v2h-2zM18 16h2v2h-2zM20 14h2v2h-2zM22 16h2v2h-2zM24 14h2v2h-2zM26 16h2v2h-2zM28 14h2v2h-2zM30 20h2v2h-2zM18 20h2v2h-2zM20 18h2v2h-2zM22 20h2v2h-2zM26 20h2v2h-2zM28 18h2v2h-2zM30 24h2v2h-2zM18 24h2v2h-2zM20 22h2v2h-2zM24 22h2v2h-2zM26 24h2v2h-2zM28 22h2v2h-2zM30 28h2v2h-2zM20 26h2v2h-2zM22 28h2v2h-2zM24 26h2v2h-2zM26 28h2v2h-2zM20 30h2v2h-2zM24 30h2v2h-2zM28 30h2v2h-2z"></path>
</symbol>
<symbol id="icon-envelop" viewBox="0 0 32 32">
<path d="M29 4h-26c-1.65 0-3 1.35-3 3v20c0 1.65 1.35 3 3 3h26c1.65 0 3-1.35 3-3v-20c0-1.65-1.35-3-3-3zM12.461 17.199l-8.461 6.59v-15.676l8.461 9.086zM5.512 8h20.976l-10.488 7.875-10.488-7.875zM12.79 17.553l3.21 3.447 3.21-3.447 6.58 8.447h-19.579l6.58-8.447zM19.539 17.199l8.461-9.086v15.676l-8.461-6.59z"></path>
</symbol>
<symbol id="icon-quotes-left" viewBox="0 0 32 32">
<path d="M7.031 14c3.866 0 7 3.134 7 7s-3.134 7-7 7-7-3.134-7-7l-0.031-1c0-7.732 6.268-14 14-14v4c-2.671 0-5.182 1.040-7.071 2.929-0.364 0.364-0.695 0.751-0.995 1.157 0.357-0.056 0.724-0.086 1.097-0.086zM25.031 14c3.866 0 7 3.134 7 7s-3.134 7-7 7-7-3.134-7-7l-0.031-1c0-7.732 6.268-14 14-14v4c-2.671 0-5.182 1.040-7.071 2.929-0.364 0.364-0.695 0.751-0.995 1.157 0.358-0.056 0.724-0.086 1.097-0.086z"></path>
</symbol>
<symbol id="icon-quotes-right" viewBox="0 0 32 32">
<path d="M25 20c-3.866 0-7-3.134-7-7s3.134-7 7-7 7 3.134 7 7l0.031 1c0 7.732-6.268 14-14 14v-4c2.671 0 5.182-1.040 7.071-2.929 0.364-0.364 0.695-0.75 0.995-1.157-0.357 0.056-0.724 0.086-1.097 0.086zM7 20c-3.866 0-7-3.134-7-7s3.134-7 7-7 7 3.134 7 7l0.031 1c0 7.732-6.268 14-14 14v-4c2.671 0 5.182-1.040 7.071-2.929 0.364-0.364 0.695-0.75 0.995-1.157-0.357 0.056-0.724 0.086-1.097 0.086z"></path>
</symbol>
<symbol id="icon-bookmark" viewBox="0 0 32 32">
<path d="M6 0v32l10-10 10 10v-32z"></path>
</symbol>
<symbol id="icon-star-full" viewBox="0 0 32 32">
<path d="M32 12.408l-11.056-1.607-4.944-10.018-4.944 10.018-11.056 1.607 8 7.798-1.889 11.011 9.889-5.199 9.889 5.199-1.889-11.011 8-7.798z"></path>
</symbol>
<symbol id="icon-heart" viewBox="0 0 32 32">
<path d="M23.6 2c-3.363 0-6.258 2.736-7.599 5.594-1.342-2.858-4.237-5.594-7.601-5.594-4.637 0-8.4 3.764-8.4 8.401 0 9.433 9.516 11.906 16.001 21.232 6.13-9.268 15.999-12.1 15.999-21.232 0-4.637-3.763-8.401-8.4-8.401z"></path>
</symbol>
<symbol id="icon-play2" viewBox="0 0 32 32">
<path d="M16 0c-8.837 0-16 7.163-16 16s7.163 16 16 16 16-7.163 16-16-7.163-16-16-16zM16 29c-7.18 0-13-5.82-13-13s5.82-13 13-13 13 5.82 13 13-5.82 13-13 13zM12 9l12 7-12 7z"></path>
</symbol>
<symbol id="icon-backward" viewBox="0 0 32 32">
<path d="M16 32c8.837 0 16-7.163 16-16s-7.163-16-16-16-16 7.163-16 16 7.163 16 16 16zM16 3c7.18 0 13 5.82 13 13s-5.82 13-13 13-13-5.82-13-13 5.82-13 13-13zM22 21l-7-5 7-5zM14 21l-7-5 7-5z"></path>
</symbol>
<symbol id="icon-forward2" viewBox="0 0 32 32">
<path d="M16 0c-8.837 0-16 7.163-16 16s7.163 16 16 16 16-7.163 16-16-7.163-16-16-16zM16 29c-7.18 0-13-5.82-13-13s5.82-13 13-13 13 5.82 13 13-5.82 13-13 13zM10 11l7 5-7 5zM18 11l7 5-7 5z"></path>
</symbol>
<symbol id="icon-play3" viewBox="0 0 32 32">
<path d="M6 4l20 12-20 12z"></path>
</symbol>
<symbol id="icon-pause2" viewBox="0 0 32 32">
<path d="M4 4h10v24h-10zM18 4h10v24h-10z"></path>
</symbol>
<symbol id="icon-amazon" viewBox="0 0 32 32">
<path d="M28.925 27.663c-3.506 2.587-8.581 3.962-12.956 3.962-6.131 0-11.65-2.262-15.825-6.038-0.325-0.294-0.038-0.7 0.356-0.469 4.506 2.625 10.081 4.2 15.838 4.2 3.881 0 8.15-0.806 12.081-2.475 0.587-0.25 1.087 0.394 0.506 0.819z"></path>
<path d="M30.381 26c-0.45-0.575-2.962-0.275-4.094-0.137-0.344 0.038-0.394-0.256-0.087-0.475 2.006-1.406 5.294-1 5.675-0.531 0.387 0.475-0.1 3.769-1.981 5.344-0.288 0.244-0.563 0.113-0.438-0.206 0.431-1.056 1.375-3.419 0.925-3.994z"></path>
<path d="M22.106 23.675l0.006 0.006c0.775-0.681 2.169-1.9 2.956-2.556 0.313-0.25 0.256-0.669 0.012-1.019-0.706-0.975-1.456-1.769-1.456-3.569v-6c0-2.544 0.175-4.875-1.694-6.625-1.475-1.413-3.925-1.913-5.8-1.913-3.662 0-7.75 1.369-8.606 5.894-0.094 0.481 0.263 0.738 0.575 0.806l3.731 0.406c0.35-0.019 0.6-0.363 0.669-0.713 0.319-1.556 1.625-2.313 3.094-2.313 0.794 0 1.694 0.287 2.163 1 0.538 0.794 0.469 1.875 0.469 2.794v0.5c-2.231 0.25-5.15 0.412-7.238 1.331-2.412 1.044-4.106 3.169-4.106 6.294 0 4 2.519 6 5.763 6 2.738 0 4.231-0.644 6.344-2.806 0.7 1.012 0.925 1.506 2.206 2.569 0.294 0.156 0.656 0.144 0.913-0.087zM18.225 14.287c0 1.5 0.038 2.75-0.719 4.081-0.613 1.087-1.581 1.75-2.662 1.75-1.475 0-2.338-1.125-2.338-2.788 0-3.281 2.944-3.875 5.725-3.875v0.831z"></path>
</symbol>
<symbol id="icon-facebook2" viewBox="0 0 32 32">
<path d="M29 0h-26c-1.65 0-3 1.35-3 3v26c0 1.65 1.35 3 3 3h13v-14h-4v-4h4v-2c0-3.306 2.694-6 6-6h4v4h-4c-1.1 0-2 0.9-2 2v2h6l-1 4h-5v14h9c1.65 0 3-1.35 3-3v-26c0-1.65-1.35-3-3-3z"></path>
</symbol>
<symbol id="icon-instagram" viewBox="0 0 32 32">
<path d="M16 2.881c4.275 0 4.781 0.019 6.462 0.094 1.563 0.069 2.406 0.331 2.969 0.55 0.744 0.288 1.281 0.638 1.837 1.194 0.563 0.563 0.906 1.094 1.2 1.838 0.219 0.563 0.481 1.412 0.55 2.969 0.075 1.688 0.094 2.194 0.094 6.463s-0.019 4.781-0.094 6.463c-0.069 1.563-0.331 2.406-0.55 2.969-0.288 0.744-0.637 1.281-1.194 1.837-0.563 0.563-1.094 0.906-1.837 1.2-0.563 0.219-1.413 0.481-2.969 0.55-1.688 0.075-2.194 0.094-6.463 0.094s-4.781-0.019-6.463-0.094c-1.563-0.069-2.406-0.331-2.969-0.55-0.744-0.288-1.281-0.637-1.838-1.194-0.563-0.563-0.906-1.094-1.2-1.837-0.219-0.563-0.481-1.413-0.55-2.969-0.075-1.688-0.094-2.194-0.094-6.463s0.019-4.781 0.094-6.463c0.069-1.563 0.331-2.406 0.55-2.969 0.288-0.744 0.638-1.281 1.194-1.838 0.563-0.563 1.094-0.906 1.838-1.2 0.563-0.219 1.412-0.481 2.969-0.55 1.681-0.075 2.188-0.094 6.463-0.094zM16 0c-4.344 0-4.887 0.019-6.594 0.094-1.7 0.075-2.869 0.35-3.881 0.744-1.056 0.412-1.95 0.956-2.837 1.85-0.894 0.888-1.438 1.781-1.85 2.831-0.394 1.019-0.669 2.181-0.744 3.881-0.075 1.713-0.094 2.256-0.094 6.6s0.019 4.887 0.094 6.594c0.075 1.7 0.35 2.869 0.744 3.881 0.413 1.056 0.956 1.95 1.85 2.837 0.887 0.887 1.781 1.438 2.831 1.844 1.019 0.394 2.181 0.669 3.881 0.744 1.706 0.075 2.25 0.094 6.594 0.094s4.888-0.019 6.594-0.094c1.7-0.075 2.869-0.35 3.881-0.744 1.050-0.406 1.944-0.956 2.831-1.844s1.438-1.781 1.844-2.831c0.394-1.019 0.669-2.181 0.744-3.881 0.075-1.706 0.094-2.25 0.094-6.594s-0.019-4.887-0.094-6.594c-0.075-1.7-0.35-2.869-0.744-3.881-0.394-1.063-0.938-1.956-1.831-2.844-0.887-0.887-1.781-1.438-2.831-1.844-1.019-0.394-2.181-0.669-3.881-0.744-1.712-0.081-2.256-0.1-6.6-0.1v0z"></path>
<path d="M16 7.781c-4.537 0-8.219 3.681-8.219 8.219s3.681 8.219 8.219 8.219 8.219-3.681 8.219-8.219c0-4.537-3.681-8.219-8.219-8.219zM16 21.331c-2.944 0-5.331-2.387-5.331-5.331s2.387-5.331 5.331-5.331c2.944 0 5.331 2.387 5.331 5.331s-2.387 5.331-5.331 5.331z"></path>
<path d="M26.462 7.456c0 1.060-0.859 1.919-1.919 1.919s-1.919-0.859-1.919-1.919c0-1.060 0.859-1.919 1.919-1.919s1.919 0.859 1.919 1.919z"></path>
</symbol>
<symbol id="icon-youtube2" viewBox="0 0 80 32">
<path d="M10.75 5.294c0.007-0.027 0.011-0.046 0.012-0.056l0.033-0.236-1.48-0.008c-1.337-0.008-1.746 0-1.783 0.034-0.018 0.016-0.479 1.77-1.302 4.946-0.392 1.515-0.723 2.725-0.734 2.689s-0.481-1.766-1.044-3.843c-0.563-2.078-1.034-3.789-1.048-3.803-0.019-0.019-1.812-0.028-3.263-0.016-0.21 0.002-0.327-0.41 1.876 6.598 0.305 0.97 0.762 2.344 1.015 3.052 0.292 0.817 0.5 1.448 0.642 1.974 0.251 1.002 0.26 1.63 0.205 2.363-0.063 0.847-0.073 6.826-0.011 6.926 0.047 0.077 2.851 0.112 3.116 0.040 0.042-0.012 0.071-0.053 0.090-0.279 0.066-0.194 0.071-0.968 0.071-4.18v-4.103l0.179-0.566c0.117-0.37 0.413-1.344 0.656-2.163s0.538-1.801 0.654-2.18c1.057-3.447 2.067-6.838 2.094-7.032l0.022-0.158z"></path>
<path d="M26.441 10.27l-0.001 0.214-0.033 0-0.019 5.906-0.018 5.726-0.458 0.467c-0.513 0.522-0.925 0.722-1.297 0.629-0.405-0.102-0.395 0.056-0.429-6.712l-0.031-6.23h-2.947v0.214h-0.034v6.759c0 7.242-0 7.237 0.367 7.965 0.293 0.579 0.719 0.861 1.45 0.958h0c0.962 0.128 2-0.308 2.962-1.244l0.418-0.407v0.701c0 0.606 0.017 0.706 0.127 0.737 0.18 0.050 2.412 0.053 2.653 0.004l0.2-0.041v-0.207l0.034-0.007v-15.472l-2.944 0.039z"></path>
<path d="M18.965 13.323c-0.279-1.198-0.802-2.004-1.664-2.561-1.353-0.875-2.897-0.967-4.331-0.259-1.045 0.516-1.717 1.372-2.065 2.628-0.041 0.15-0.072 0.275-0.095 0.463-0.088 0.443-0.099 1.105-0.122 4.186-0.035 4.748 0.019 5.313 0.614 6.391 0.583 1.058 1.794 1.833 3.112 1.993 0.397 0.048 1.201-0.027 1.663-0.155 1.051-0.291 2.058-1.122 2.504-2.065 0.192-0.407 0.309-0.691 0.379-1.208 0.13-0.707 0.14-1.849 0.14-4.762-0-3.715-0.012-4.121-0.136-4.651zM15.604 23c-0.247 0.188-0.679 0.27-1.031 0.195-0.271-0.058-0.636-0.482-0.748-0.869-0.14-0.482-0.151-7.187-0.030-8.502 0.199-0.658 0.756-1.002 1.364-0.838 0.474 0.128 0.716 0.424 0.854 1.046 0.103 0.461 0.115 1.035 0.093 4.414-0.014 2.241-0.022 3.336-0.096 3.924-0.074 0.371-0.197 0.47-0.407 0.63z"></path>
<path d="M71.887 16.692h1.424l-0.023-1.29c-0.022-1.183-0.039-1.319-0.198-1.64-0.249-0.507-0.617-0.731-1.201-0.731-0.701 0-1.146 0.339-1.356 1.036-0.089 0.296-0.183 2.334-0.116 2.51 0.038 0.098 0.241 0.116 1.469 0.116z"></path>
<path d="M62.369 13.757c-0.19-0.383-0.543-0.571-0.954-0.556-0.319 0.011-0.674 0.146-1.015 0.407l-0.254 0.193v9.269l0.254 0.193c0.576 0.439 1.209 0.532 1.644 0.241 0.172-0.115 0.285-0.274 0.372-0.527 0.114-0.329 0.124-0.75 0.109-4.649-0.015-4.064-0.024-4.303-0.157-4.57z"></path>
<path d="M80.027 9.582c-0.284-3.401-0.509-4.505-1.211-5.923-0.929-1.878-2.272-2.868-4.184-3.086-1.478-0.168-7.041-0.405-12.189-0.52-8.912-0.198-23.564 0.183-25.436 0.662-0.865 0.221-1.513 0.597-2.188 1.269-1.183 1.177-1.887 2.865-2.17 5.2-0.647 5.331-0.66 11.773-0.037 17.297 0.268 2.376 0.82 3.92 1.857 5.192 0.647 0.794 1.761 1.469 2.758 1.67 0.7 0.141 4.201 0.337 9.3 0.521 0.76 0.027 2.771 0.074 4.47 0.105 3.541 0.063 10.051 0.026 13.772-0.079 2.504-0.070 7.069-0.255 7.922-0.321 0.24-0.019 0.796-0.054 1.236-0.079 1.477-0.083 2.417-0.393 3.3-1.086 1.142-0.897 2.027-2.556 2.4-4.501 0.354-1.84 0.59-5.118 0.638-8.839 0.040-3.109-0.013-4.787-0.238-7.482zM44.54 8.35l-1.656 0.020-0.073 17.661-1.435 0.018c-1.11 0.015-1.447-0.001-1.474-0.073-0.019-0.051-0.042-4.032-0.052-8.849l-0.018-8.758-3.234-0.041v-2.76l9.557 0.039 0.041 2.721-1.656 0.020zM54.694 18.472v7.595h-2.616v-0.799c0-0.601-0.023-0.799-0.093-0.799-0.051 0-0.288 0.198-0.527 0.441-0.517 0.526-1.13 0.949-1.653 1.145-1.083 0.405-2.112 0.169-2.551-0.586-0.401-0.691-0.409-0.845-0.409-8.010v-6.58h2.614l0.020 6.196c0.019 6.088 0.022 6.2 0.168 6.448 0.193 0.329 0.488 0.417 0.956 0.288 0.276-0.076 0.464-0.21 0.911-0.654l0.563-0.561v-11.717h2.616v7.595zM64.899 24.982c-0.23 0.513-0.744 1.016-1.165 1.14-1.099 0.324-1.98 0.060-2.998-0.897-0.316-0.297-0.61-0.538-0.654-0.538-0.053 0-0.082 0.233-0.082 0.69v0.69h-2.616v-20.495h2.616v3.343c0 1.839 0.025 3.343 0.054 3.343s0.306-0.244 0.613-0.541c0.707-0.683 1.298-0.981 2.049-1.038 1.338-0.101 2.135 0.587 2.501 2.16 0.114 0.491 0.125 1.051 0.125 5.596-0 5.537-0.001 5.56-0.443 6.546zM75.968 21.943c-0.023 0.57-0.092 1.223-0.154 1.454-0.364 1.349-1.332 2.304-2.732 2.696-1.885 0.527-3.96-0.337-4.788-1.994-0.465-0.93-0.481-1.116-0.481-5.662 0-3.707 0.013-4.162 0.132-4.667 0.336-1.431 1.168-2.357 2.578-2.871 0.408-0.149 0.835-0.225 1.261-0.234 1.521-0.031 3.031 0.787 3.663 2.119 0.427 0.899 0.48 1.283 0.522 3.816l0.039 2.271-5.578 0.039-0.020 1.526c-0.029 2.153 0.116 2.815 0.697 3.207 0.489 0.329 1.24 0.305 1.649-0.055 0.383-0.337 0.491-0.698 0.529-1.753l0.034-0.927h2.694l-0.043 1.036z"></path>
</symbol>
<symbol id="icon-onedrive" viewBox="0 0 32 32">
<path d="M10.965 25.887c-1.884-0.471-2.933-1.968-2.936-4.189-0.001-0.71 0.050-1.051 0.228-1.507 0.435-1.12 1.585-1.965 3.099-2.276 0.753-0.155 0.986-0.321 0.986-0.705 0-0.121 0.090-0.48 0.199-0.799 0.498-1.447 1.42-2.653 2.405-3.147 1.031-0.516 1.551-0.633 2.798-0.626 1.771 0.009 2.655 0.394 3.89 1.691l0.68 0.714 0.609-0.211c2.947-1.020 5.885 0.716 6.122 3.617l0.065 0.794 0.58 0.208c1.657 0.594 2.436 1.841 2.295 3.674-0.092 1.199-0.653 2.156-1.541 2.631l-0.417 0.223-9.276 0.018c-7.128 0.014-9.394-0.012-9.785-0.109v0zM3.226 24.561c-1.131-0.284-2.328-1.339-2.89-2.546-0.319-0.685-0.336-0.785-0.336-1.996 0-1.152 0.027-1.337 0.281-1.909 0.535-1.206 1.559-2.077 2.845-2.419 0.271-0.072 0.526-0.188 0.567-0.256s0.085-0.443 0.099-0.831c0.090-2.412 1.587-4.538 3.678-5.221 1.13-0.369 2.612-0.403 3.841 0.116 0.39 0.165 0.346 0.2 1.17-0.942 0.487-0.675 1.41-1.39 2.216-1.818 0.87-0.462 1.775-0.675 2.857-0.672 3.024 0.008 5.63 2.007 6.594 5.058 0.308 0.975 0.293 1.248-0.071 1.256-0.159 0.004-0.613 0.096-1.009 0.205l-0.721 0.199-0.658-0.695c-1.855-1.96-4.882-2.384-7.456-1.044-1.028 0.536-1.854 1.305-2.478 2.307-0.445 0.714-1.012 2.047-1.012 2.378 0 0.235-0.18 0.352-0.948 0.618-2.378 0.824-3.766 2.728-3.765 5.163 0 0.887 0.216 1.971 0.516 2.592 0.113 0.234 0.176 0.457 0.14 0.495-0.092 0.097-3.050 0.064-3.459-0.038v0z"></path>
</symbol>
<symbol id="icon-appleinc" viewBox="0 0 32 32">
<path d="M24.734 17.003c-0.040-4.053 3.305-5.996 3.454-6.093-1.88-2.751-4.808-3.127-5.851-3.171-2.492-0.252-4.862 1.467-6.127 1.467-1.261 0-3.213-1.43-5.28-1.392-2.716 0.040-5.221 1.579-6.619 4.012-2.822 4.897-0.723 12.151 2.028 16.123 1.344 1.944 2.947 4.127 5.051 4.049 2.026-0.081 2.793-1.311 5.242-1.311s3.138 1.311 5.283 1.271c2.18-0.041 3.562-1.981 4.897-3.931 1.543-2.255 2.179-4.439 2.216-4.551-0.048-0.022-4.252-1.632-4.294-6.473zM20.705 5.11c1.117-1.355 1.871-3.235 1.665-5.11-1.609 0.066-3.559 1.072-4.713 2.423-1.036 1.199-1.942 3.113-1.699 4.951 1.796 0.14 3.629-0.913 4.747-2.264z"></path>
</symbol>
<symbol id="icon-android" viewBox="0 0 32 32">
<path d="M28 12c-1.1 0-2 0.9-2 2v8c0 1.1 0.9 2 2 2s2-0.9 2-2v-8c0-1.1-0.9-2-2-2zM4 12c-1.1 0-2 0.9-2 2v8c0 1.1 0.9 2 2 2s2-0.9 2-2v-8c0-1.1-0.9-2-2-2zM7 23c0 1.657 1.343 3 3 3v0 4c0 1.1 0.9 2 2 2s2-0.9 2-2v-4h4v4c0 1.1 0.9 2 2 2s2-0.9 2-2v-4c1.657 0 3-1.343 3-3v-11h-18v11z"></path>
<path d="M24.944 10c-0.304-2.746-1.844-5.119-4.051-6.551l1.001-2.001c0.247-0.494 0.047-1.095-0.447-1.342s-1.095-0.047-1.342 0.447l-1.004 2.009-0.261-0.104c-0.893-0.297-1.848-0.458-2.84-0.458s-1.947 0.161-2.84 0.458l-0.261 0.104-1.004-2.009c-0.247-0.494-0.848-0.694-1.342-0.447s-0.694 0.848-0.447 1.342l1.001 2.001c-2.207 1.433-3.747 3.805-4.051 6.551v1h17.944v-1h-0.056zM13 8c-0.552 0-1-0.448-1-1s0.447-0.999 0.998-1c0.001 0 0.002 0 0.003 0s0.001-0 0.002-0c0.551 0.001 0.998 0.448 0.998 1s-0.448 1-1 1zM19 8c-0.552 0-1-0.448-1-1s0.446-0.999 0.998-1c0 0 0.001 0 0.002 0s0.002-0 0.003-0c0.551 0.001 0.998 0.448 0.998 1s-0.448 1-1 1z"></path>
</symbol>
<symbol id="icon-chrome" viewBox="0 0 32 32">
<path d="M8.071 13.954l-4.579-7.931c2.932-3.671 7.445-6.023 12.508-6.023 5.857 0 10.978 3.148 13.767 7.844h-13.055c-0.235-0.020-0.472-0.031-0.711-0.031-3.809 0-7.018 2.614-7.929 6.142zM21.728 10.156h9.171c0.711 1.81 1.101 3.781 1.101 5.844 0 8.776-7.066 15.9-15.818 15.998l6.544-11.334c0.921-1.324 1.462-2.932 1.462-4.664 0-2.287-0.943-4.357-2.459-5.844zM10.188 16c0-3.205 2.607-5.813 5.813-5.813s5.813 2.607 5.813 5.813c0 3.205-2.608 5.813-5.813 5.813s-5.813-2.608-5.813-5.813zM18.193 23.889l-4.581 7.934c-7.704-1.153-13.613-7.797-13.613-15.822 0-2.851 0.746-5.526 2.053-7.845l6.532 11.314c1.308 2.785 4.14 4.718 7.415 4.718 0.759 0 1.495-0.104 2.193-0.299z"></path>
</symbol>
<symbol id="icon-firefox" viewBox="0 0 32 32">
<path d="M31.954 10.442l-0.371 2.377c0 0-0.53-4.402-1.179-6.047-0.995-2.521-1.438-2.501-1.441-2.498 0.667 1.694 0.546 2.604 0.546 2.604s-1.181-3.219-4.303-4.243c-3.459-1.134-5.33-0.824-5.547-0.765-0.033-0-0.064-0-0.095-0 0.026 0.002 0.050 0.005 0.076 0.007-0.001 0.001-0.003 0.001-0.003 0.002 0.014 0.017 3.822 0.666 4.497 1.594 0 0-1.617 0-3.227 0.464-0.073 0.021 5.923 0.749 7.148 6.74 0 0-0.657-1.371-1.47-1.604 0.535 1.626 0.397 4.712-0.112 6.245-0.066 0.197-0.133-0.853-1.135-1.305 0.321 2.301-0.019 5.952-1.616 6.957-0.124 0.078 1.001-3.603 0.226-2.18-4.46 6.838-9.731 3.155-12.101 1.535 1.215 0.264 3.52-0.041 4.541-0.8 0.001-0.001 0.002-0.002 0.004-0.003 1.108-0.758 1.765-1.311 2.354-1.18s0.982-0.46 0.524-0.985c-0.459-0.526-1.572-1.249-3.079-0.855-1.063 0.278-2.379 1.454-4.389 0.264-1.543-0.914-1.688-1.673-1.702-2.199 0.038-0.186 0.086-0.361 0.143-0.52 0.178-0.496 0.716-0.646 1.015-0.764 0.508 0.087 0.946 0.246 1.405 0.481 0.006-0.153 0.008-0.356-0.001-0.586 0.044-0.088 0.017-0.352-0.054-0.674-0.041-0.322-0.107-0.655-0.211-0.959 0-0 0.001-0 0.001-0 0.002-0.001 0.003-0.001 0.005-0.002s0.005-0.004 0.007-0.006c0-0.001 0.001-0.001 0.001-0.002 0.003-0.004 0.005-0.008 0.006-0.015 0.032-0.144 0.376-0.423 0.804-0.722 0.383-0.268 0.834-0.553 1.19-0.774 0.314-0.195 0.554-0.34 0.605-0.378 0.019-0.015 0.042-0.032 0.068-0.051 0.005-0.004 0.009-0.007 0.014-0.011 0.003-0.002 0.006-0.005 0.009-0.007 0.169-0.135 0.421-0.389 0.474-0.924 0-0.001 0-0.002 0-0.004 0.002-0.016 0.003-0.032 0.004-0.048 0.001-0.011 0.002-0.023 0.002-0.034 0-0.009 0.001-0.018 0.001-0.027 0.001-0.021 0.002-0.043 0.002-0.065 0-0.001 0-0.002 0-0.004 0.001-0.052-0-0.106-0.003-0.163-0.002-0.032-0.004-0.060-0.009-0.086-0-0.001-0.001-0.003-0.001-0.004-0.001-0.003-0.001-0.005-0.002-0.008-0.001-0.005-0.002-0.009-0.004-0.013-0-0.001-0-0.001-0.001-0.001-0.002-0.005-0.004-0.010-0.005-0.014-0-0-0-0-0-0.001-0.055-0.128-0.26-0.177-1.108-0.191-0.001-0-0.002-0-0.002-0v0c-0.346-0.006-0.798-0.006-1.391-0.004-1.039 0.004-1.613-1.016-1.797-1.41 0.251-1.389 0.977-2.379 2.17-3.051 0.023-0.013 0.018-0.023-0.009-0.031 0.233-0.141-2.82-0.004-4.225 1.782-1.247-0.31-2.333-0.289-3.269-0.069-0.18-0.005-0.404-0.027-0.67-0.083-0.623-0.564-1.514-1.606-1.562-2.85 0 0-0.003 0.002-0.008 0.006-0.001-0.012-0.002-0.024-0.002-0.036 0 0-1.897 1.458-1.613 5.434-0.001 0.064-0.002 0.125-0.004 0.184-0.514 0.696-0.768 1.282-0.787 1.411-0.455 0.926-0.917 2.32-1.292 4.437 0 0 0.263-0.833 0.79-1.777-0.388 1.188-0.693 3.036-0.514 5.808 0 0 0.047-0.615 0.215-1.5 0.131 1.719 0.704 3.841 2.152 6.337 2.78 4.791 7.052 7.211 11.775 7.582 0.839 0.069 1.689 0.071 2.544 0.006 0.079-0.006 0.157-0.011 0.236-0.018 0.968-0.068 1.942-0.214 2.914-0.449 13.287-3.212 11.842-19.256 11.842-19.256z"></path>
</symbol>
<symbol id="icon-safari" viewBox="0 0 32 32">
<path d="M16 0c-8.838 0-16 7.162-16 16s7.162 16 16 16 16-7.163 16-16-7.163-16-16-16zM29.95 14.775l-0.031-0.331c0.006 0.113 0.019 0.219 0.031 0.331zM27.762 8.4l-0.225-0.338c0.075 0.113 0.15 0.225 0.225 0.338zM26.894 7.206l-0.137-0.169c0.050 0.056 0.094 0.112 0.137 0.169zM24.956 5.237l-0.169-0.138c0.063 0.050 0.113 0.094 0.169 0.138zM23.938 4.463l-0.337-0.225c0.113 0.075 0.225 0.15 0.337 0.225zM17.556 2.087l-0.337-0.031c0.113 0.006 0.225 0.019 0.337 0.031zM14.775 2.050l-0.338 0.031c0.113-0.006 0.225-0.019 0.338-0.031zM8.4 4.237l-0.338 0.225c0.113-0.075 0.225-0.15 0.338-0.225zM7.206 5.106l-0.162 0.131c0.056-0.044 0.106-0.088 0.162-0.131zM5.237 7.044l-0.138 0.169c0.050-0.056 0.094-0.112 0.138-0.169zM4.463 8.063l-0.225 0.338c0.075-0.113 0.15-0.225 0.225-0.338zM2.087 14.444l-0.031 0.338c0.006-0.113 0.019-0.225 0.031-0.338zM2.050 17.225l0.031 0.337c-0.006-0.113-0.019-0.225-0.031-0.337zM4.237 23.594l0.225 0.337c-0.075-0.106-0.15-0.219-0.225-0.337zM4.5 23.988l2.494-1.669-0.275-0.419-2.494 1.669c-1.131-1.756-1.875-3.775-2.125-5.95l1.494-0.15-0.050-0.5-1.494 0.15c-0.025-0.288-0.038-0.581-0.044-0.875h3v-0.5h-3c0.006-0.294 0.019-0.581 0.044-0.875l1.494 0.144 0.050-0.5-1.494-0.144c0.25-2.175 1-4.194 2.131-5.95l2.494 1.669 0.275-0.419-2.5-1.656c0.169-0.237 0.338-0.475 0.519-0.7l1.156 0.95 0.319-0.388-1.156-0.95c0.188-0.225 0.388-0.438 0.588-0.65l2.119 2.119 0.356-0.356-2.119-2.119c0.213-0.2 0.425-0.4 0.644-0.588l0.95 1.162 0.387-0.319-0.95-1.156c0.231-0.181 0.463-0.356 0.7-0.525l1.669 2.494 0.419-0.275-1.669-2.494c1.756-1.131 3.775-1.875 5.95-2.125l0.15 1.494 0.5-0.050-0.15-1.494c0.287-0.025 0.581-0.038 0.875-0.044v3h0.5v-3c0.294 0.006 0.581 0.019 0.875 0.044l-0.144 1.494 0.5 0.050 0.144-1.494c2.175 0.25 4.194 1 5.95 2.131l-1.669 2.494 0.419 0.275 1.669-2.494c0.238 0.169 0.475 0.338 0.7 0.519l-0.95 1.156 0.387 0.319 0.95-1.156c0.225 0.188 0.438 0.388 0.65 0.588l-0.8 0.781-10.938 7.294-7.294 10.937-0.781 0.781c-0.2-0.212-0.4-0.425-0.588-0.644l1.156-0.95-0.319-0.387-1.156 0.95c-0.181-0.225-0.35-0.462-0.519-0.7zM5.237 24.956c-0.044-0.056-0.088-0.106-0.131-0.163l0.131 0.163zM7.044 26.762l0.162 0.131c-0.056-0.044-0.106-0.087-0.162-0.131zM8.063 27.531l0.338 0.225c-0.113-0.069-0.225-0.144-0.338-0.225zM14.444 29.913l0.338 0.031c-0.113-0.006-0.225-0.019-0.338-0.031zM17.225 29.95l0.331-0.031c-0.113 0.006-0.219 0.019-0.331 0.031zM23.6 27.762l0.337-0.225c-0.113 0.075-0.225 0.15-0.337 0.225zM24.794 26.894l0.169-0.137c-0.056 0.050-0.113 0.094-0.169 0.137zM25.887 25.913l0.025-0.025c-0.006 0.006-0.019 0.019-0.025 0.025zM26.762 24.956l0.137-0.169c-0.050 0.056-0.094 0.113-0.137 0.169zM26.981 24.688l-1.156-0.95-0.319 0.387 1.156 0.95c-0.188 0.225-0.387 0.438-0.587 0.65l-2.119-2.119-0.356 0.356 2.119 2.119c-0.212 0.2-0.425 0.4-0.644 0.587l-0.95-1.163-0.387 0.319 0.95 1.156c-0.231 0.181-0.462 0.356-0.7 0.525l-1.669-2.494-0.419 0.275 1.669 2.494c-1.756 1.131-3.775 1.875-5.95 2.125l-0.15-1.494-0.5 0.050 0.15 1.494c-0.288 0.025-0.581 0.038-0.875 0.044v-3h-0.5v3c-0.294-0.006-0.581-0.019-0.875-0.044l0.144-1.494-0.5-0.050-0.144 1.494c-2.175-0.25-4.194-1-5.95-2.131l1.669-2.494-0.419-0.275-1.656 2.494c-0.237-0.169-0.475-0.337-0.7-0.519l0.95-1.156-0.388-0.319-0.95 1.156c-0.225-0.188-0.438-0.387-0.65-0.587l0.787-0.781 10.937-7.294 7.294-10.938 0.781-0.781c0.2 0.213 0.4 0.425 0.587 0.644l-1.156 0.95 0.319 0.387 1.156-0.95c0.181 0.231 0.356 0.463 0.525 0.7l-2.494 1.669 0.275 0.419 2.494-1.669c1.131 1.756 1.875 3.775 2.125 5.95l-1.494 0.15 0.050 0.5 1.494-0.15c0.025 0.287 0.038 0.581 0.044 0.875h-3v0.5h3c-0.006 0.294-0.019 0.581-0.044 0.875l-1.494-0.144-0.050 0.5 1.494 0.144c-0.25 2.175-1 4.194-2.131 5.95l-2.494-1.669-0.275 0.419 2.494 1.669c-0.163 0.225-0.337 0.456-0.519 0.688zM29.95 17.219c-0.012 0.113-0.019 0.225-0.031 0.337l0.031-0.337zM27.762 23.6c-0.075 0.113-0.15 0.225-0.225 0.337l0.225-0.337z"></path>
<path d="M13.517 2.221l0.585 2.942-0.49 0.098-0.585-2.942 0.49-0.098z"></path>
<path d="M18.489 29.78l-0.585-2.942 0.49-0.098 0.585 2.942-0.49 0.098z"></path>
<path d="M12.176 2.528l0.436 1.435-0.478 0.145-0.436-1.435 0.478-0.145z"></path>
<path d="M19.826 29.465l-0.436-1.435 0.478-0.145 0.436 1.435-0.478 0.145z"></path>
<path d="M10.875 2.972l1.148 2.772-0.462 0.191-1.148-2.772 0.462-0.191z"></path>
<path d="M21.129 29.030l-1.148-2.772 0.462-0.191 1.148 2.772-0.462 0.191z"></path>
<path d="M9.176 3.771l0.441-0.236 0.707 1.323-0.441 0.236-0.707-1.323z"></path>
<path d="M22.816 28.228l-0.441 0.236-0.707-1.323 0.441-0.236 0.707 1.323z"></path>
<path d="M3.769 9.182l1.323 0.707-0.236 0.441-1.323-0.707 0.236-0.441z"></path>
<path d="M28.226 22.819l-1.323-0.707 0.236-0.441 1.323 0.707-0.236 0.441z"></path>
<path d="M5.744 12.019l-2.772-1.148 0.191-0.462 2.772 1.148-0.191 0.462z"></path>
<path d="M26.26 19.978l2.772 1.148-0.191 0.462-2.772-1.148 0.191-0.462z"></path>
<path d="M2.673 11.7l1.436 0.435-0.145 0.479-1.436-0.435 0.145-0.479z"></path>
<path d="M29.322 20.302l-1.436-0.435 0.145-0.479 1.436 0.435-0.145 0.479z"></path>
<path d="M2.315 13.024l2.942 0.585-0.098 0.49-2.942-0.585 0.098-0.49z"></path>
<path d="M29.679 18.976l-2.942-0.585 0.098-0.49 2.942 0.585-0.098 0.49z"></path>
<path d="M2.218 18.486l2.942-0.585 0.098 0.49-2.942 0.585-0.098-0.49z"></path>
<path d="M29.776 13.513l-2.942 0.585-0.098-0.49 2.942-0.585 0.098 0.49z"></path>
<path d="M2.53 19.829l1.435-0.436 0.145 0.478-1.435 0.436-0.145-0.478z"></path>
<path d="M29.468 12.178l-1.435 0.436-0.145-0.478 1.435-0.436 0.145 0.478z"></path>
<path d="M3.161 21.591l-0.191-0.462 2.772-1.148 0.191 0.462-2.772 1.148z"></path>
<path d="M28.837 10.413l0.191 0.462-2.772 1.148-0.191-0.462 2.772-1.148z"></path>
<path d="M3.776 22.821l-0.236-0.441 1.323-0.707 0.236 0.441-1.323 0.707z"></path>
<path d="M28.233 9.181l0.236 0.441-1.323 0.707-0.236-0.441 1.323-0.707z"></path>
<path d="M9.621 28.464l-0.441-0.236 0.707-1.323 0.441 0.236-0.707 1.323z"></path>
<path d="M22.377 3.534l0.441 0.236-0.707 1.323-0.441-0.236 0.707-1.323z"></path>
<path d="M10.415 28.837l1.148-2.772 0.462 0.191-1.148 2.772-0.462-0.191z"></path>
<path d="M21.59 3.16l-1.148 2.772-0.462-0.191 1.148-2.772 0.462 0.191z"></path>
<path d="M12.176 29.47l-0.478-0.145 0.435-1.435 0.478 0.145-0.435 1.435z"></path>
<path d="M19.823 2.528l0.479 0.145-0.435 1.436-0.479-0.145 0.435-1.436z"></path>
<path d="M13.515 29.776l-0.49-0.098 0.585-2.942 0.49 0.098-0.585 2.942z"></path>
<path d="M18.485 2.218l0.49 0.098-0.585 2.942-0.49-0.098 0.585-2.942z"></path>
</symbol>
<symbol id="icon-opera" viewBox="0 0 32 32">
<path d="M32 16v0 0c0 4.738-2.063 9-5.337 11.925-4.106 2-7.931 0.6-9.194-0.275 4.031-0.881 7.075-5.756 7.075-11.65s-3.044-10.769-7.075-11.656c1.269-0.875 5.094-2.275 9.194-0.275 3.275 2.931 5.337 7.194 5.337 11.931v0 0z"></path>
<path d="M10.731 6.981c-1.769 2.087-2.912 5.175-2.987 8.644 0 0.006 0 0.744 0 0.756 0.075 3.462 1.225 6.55 2.994 8.637 2.294 2.981 5.706 4.869 9.519 4.869 2.344 0 4.538-0.712 6.413-1.956-2.837 2.531-6.575 4.069-10.669 4.069-0.256 0-0.512-0.006-0.762-0.019-8.481-0.4-15.238-7.4-15.238-15.981 0-8.838 7.162-16 16-16 0.019 0 0.038 0 0.063 0 4.075 0.013 7.787 1.55 10.606 4.075-1.875-1.244-4.069-1.962-6.413-1.962-3.813 0-7.225 1.887-9.525 4.869z"></path>
</symbol>
</defs>
</svg>
